<svg width="256" height="256" viewBox="0 0 256 256" fill="none" xmlns="http://www.w3.org/2000/svg">
<path d="M88.3809 185.613H167.619C159.686 227.493 143.798 256 128 256C112.681 256 97.2775 229.194 89.1238 189.383L88.3809 185.613ZM13.66 185.615L68.7638 185.613C73.4321 212.269 81.3449 234.947 91.7003 250.818C58.9009 241.128 31.5943 218.663 15.533 189.186L13.66 185.615ZM187.236 185.613L242.341 185.615C226.582 216.847 198.411 240.741 164.314 250.814C173.97 235.993 181.504 215.254 186.261 190.888L187.236 185.613ZM191.113 102.4L253.44 102.393C255.119 110.667 256 119.231 256 128C256 141.382 253.948 154.285 250.141 166.411H189.957C191.305 154.152 192.01 141.272 192.01 128C192.01 122.184 191.874 116.443 191.609 110.797L191.113 102.4ZM2.56038 102.393L64.8871 102.4C64.2953 110.722 63.9902 119.276 63.9902 128C63.9902 138.618 64.4421 148.984 65.3128 158.983L66.0438 166.411H5.85933C2.05229 154.285 0 141.382 0 128C0 119.231 0.881273 110.667 2.56038 102.393ZM84.1732 102.393H171.827C172.47 110.659 172.813 119.221 172.813 128C172.813 138.723 172.302 149.123 171.356 159.054L170.567 166.411H85.4333C83.9865 154.303 83.1872 141.405 83.1872 128C83.1872 121.416 83.3801 114.954 83.7478 108.646L84.1732 102.393ZM165.682 7.36262L164.301 5.18336C202.929 16.5895 233.952 45.7344 247.942 83.1894L189.188 83.1931C185.15 52.2519 176.947 25.6793 165.682 7.36262ZM90.1407 5.65459L91.6993 5.18387C80.4273 22.4601 72.0495 47.8029 67.6002 77.5624L66.8123 83.1931L8.0579 83.1894C21.8602 46.2398 52.2375 17.3774 90.1407 5.65459ZM128 0C144.878 0 161.859 32.5392 169.133 79.1598L169.732 83.1899H86.268C93.1714 34.4252 110.64 0 128 0Z" fill="url(#paint0_linear_709_2027)"/>
<path d="M88.3809 185.613H167.619C159.686 227.493 143.798 256 128 256C112.681 256 97.2775 229.194 89.1238 189.383L88.3809 185.613ZM13.66 185.615L68.7638 185.613C73.4321 212.269 81.3449 234.947 91.7003 250.818C58.9009 241.128 31.5943 218.663 15.533 189.186L13.66 185.615ZM187.236 185.613L242.341 185.615C226.582 216.847 198.411 240.741 164.314 250.814C173.97 235.993 181.504 215.254 186.261 190.888L187.236 185.613ZM191.113 102.4L253.44 102.393C255.119 110.667 256 119.231 256 128C256 141.382 253.948 154.285 250.141 166.411H189.957C191.305 154.152 192.01 141.272 192.01 128C192.01 122.184 191.874 116.443 191.609 110.797L191.113 102.4ZM2.56038 102.393L64.8871 102.4C64.2953 110.722 63.9902 119.276 63.9902 128C63.9902 138.618 64.4421 148.984 65.3128 158.983L66.0438 166.411H5.85933C2.05229 154.285 0 141.382 0 128C0 119.231 0.881273 110.667 2.56038 102.393ZM84.1732 102.393H171.827C172.47 110.659 172.813 119.221 172.813 128C172.813 138.723 172.302 149.123 171.356 159.054L170.567 166.411H85.4333C83.9865 154.303 83.1872 141.405 83.1872 128C83.1872 121.416 83.3801 114.954 83.7478 108.646L84.1732 102.393ZM165.682 7.36262L164.301 5.18336C202.929 16.5895 233.952 45.7344 247.942 83.1894L189.188 83.1931C185.15 52.2519 176.947 25.6793 165.682 7.36262ZM90.1407 5.65459L91.6993 5.18387C80.4273 22.4601 72.0495 47.8029 67.6002 77.5624L66.8123 83.1931L8.0579 83.1894C21.8602 46.2398 52.2375 17.3774 90.1407 5.65459ZM128 0C144.878 0 161.859 32.5392 169.133 79.1598L169.732 83.1899H86.268C93.1714 34.4252 110.64 0 128 0Z" fill="url(#paint1_linear_709_2027)"/>
<defs>
<linearGradient id="paint0_linear_709_2027" x1="128" y1="0" x2="128" y2="256" gradientUnits="userSpaceOnUse">
<stop stop-color="#2DC1DD"/>
<stop offset="1" stop-color="#0F5196"/>
</linearGradient>
<linearGradient id="paint1_linear_709_2027" x1="262.649" y1="58.2825" x2="96.14" y2="158.932" gradientUnits="userSpaceOnUse">
<stop stop-color="#55D660"/>
<stop offset="1" stop-color="#2C7032" stop-opacity="0"/>
</linearGradient>
</defs>
</svg>
