<svg width="256" height="256" viewBox="0 0 256 256" fill="none" xmlns="http://www.w3.org/2000/svg">
<path d="M256 128C256 57.3075 198.692 0 128 0C57.3075 0 0 57.3075 0 128C0 198.692 57.3075 256 128 256C198.692 256 256 198.692 256 128ZM165.62 64.5839L108.024 198.984C105.935 203.857 100.292 206.115 95.4191 204.027C90.5458 201.938 88.2883 196.294 90.3767 191.421L147.973 57.0211C150.062 52.1477 155.706 49.8902 160.579 51.9786C165.452 54.0671 167.709 59.7106 165.62 64.5839ZM86.422 106.335L62.3506 128L86.422 149.664C90.363 153.211 90.6825 159.281 87.1356 163.222C83.5889 167.163 77.5189 167.482 73.578 163.936L41.578 135.135C39.5551 133.315 38.4 130.721 38.4 128C38.4 125.279 39.5551 122.684 41.578 120.864L73.578 92.0641C77.5189 88.5172 83.5889 88.8367 87.1356 92.7777C90.6825 96.7186 90.363 102.789 86.422 106.335ZM168.864 92.7777C172.411 88.8367 178.481 88.5172 182.422 92.0641L214.422 120.864C216.445 122.684 217.6 125.279 217.6 128C217.6 130.721 216.445 133.315 214.422 135.135L182.422 163.936C178.481 167.482 172.411 167.163 168.864 163.222C165.317 159.281 165.637 153.211 169.578 149.664L193.65 128L169.578 106.335C165.637 102.789 165.317 96.7186 168.864 92.7777Z" fill="url(#paint0_linear_709_2024)"/>
<defs>
<linearGradient id="paint0_linear_709_2024" x1="47.6016" y1="17.6004" x2="128" y2="256" gradientUnits="userSpaceOnUse">
<stop stop-color="#F79FD5"/>
<stop offset="0.261787" stop-color="#CB5AF7"/>
<stop offset="1" stop-color="#7551EC"/>
</linearGradient>
</defs>
</svg>
